<?xml version="1.0" encoding="UTF-8"?>
<svg xmlns="http://www.w3.org/2000/svg" style="display:none">
  <symbol id="icon-home" viewBox="0 0 24 24">
    <path d="M12 3l9 8h-3v9h-4v-6H10v6H6v-9H3z"/>
  </symbol>

  <symbol id="icon-courses" viewBox="0 0 24 24">
    <path d="M4 6h16v2H4zm0 4h10v2H4zm0 4h16v2H4z"/>
  </symbol>

  <symbol id="icon-html" viewBox="0 0 24 24">
    <path d="M4 4h16l-1.6 18L12 22 5.6 22 4 4zm12.6 6.9l-.9 1.1-.9-1.1L14 11l1.6 2 1.6-2zM8 11l1.6 2L11 11l-2-2-1 1z"/>
  </symbol>

  <symbol id="icon-css" viewBox="0 0 24 24">
    <path d="M4 4h16l-1.4 16L12 22 5.4 20 4 4zm11.6 6.6L12 15l-3.6-4.4L8 11l4 4 4-4z"/>
  </symbol>

  <symbol id="icon-grid" viewBox="0 0 24 24">
    <path d="M3 3h8v8H3zM13 3h8v8h-8zM3 13h8v8H3zM13 13h8v8h-8z"/>
  </symbol>

  <symbol id="icon-js" viewBox="0 0 24 24">
    <path d="M2 2h20v20H2zM14.5 17.3c.9 1.5 2 2.6 4.1 2.6 1.5 0 2.6-.4 2.6-2 0-1.4-1.1-1.9-3-2.6l-1-.4c-1-.4-1.6-.9-1.6-1.9 0-1 1-.9 1.6-.9 1 0 1.7.1 2.3.9l1-1c-.9-1.1-2-1.5-3.6-1.5-1.9 0-3.3 1-3.3 2.8 0 1.6 1 2.3 2.6 2.9l1 .4c1 .4 1.6 1 1.6 2 0 1.2-1 1.9-2.6 1.9-1.5 0-2.5-.7-3-1.6l-1 1c.8 1.3 2.3 2.4 4.8 2.4 3.1 0 5-1.8 5-4.2 0-1.8-1.1-2.7-3.2-3.4l-1-.4c-1-.4-1.6-.9-1.6-1.9 0-1 1-.9 1.6-.9 1 0 1.7.1 2.3.9l1-1c-.9-1.1-2-1.5-3.6-1.5-1.9 0-3.3 1-3.3 2.8 0 1.6 1 2.3 2.6 2.9l1 .4z"/>
  </symbol>

  <symbol id="icon-success" viewBox="0 0 24 24">
    <path d="M12 2a10 10 0 1 0 0 20 10 10 0 0 0 0-20zm-1 14l-4-4 1.4-1.4L11 13.2l5.6-5.6L18 8l-7 8z"/>
  </symbol>

  <symbol id="icon-error" viewBox="0 0 24 24">
    <path d="M11 15h2v2h-2zm0-8h2v6h-2zM12 2C6.5 2 2 6.5 2 12s4.5 10 10 10 10-4.5 10-10S17.5 2 12 2z"/>
  </symbol>

  <symbol id="icon-info" viewBox="0 0 24 24">
    <path d="M11 17h2v-6h-2zm0-8h2V7h-2zM12 2C6.48 2 2 6.48 2 12s4.48 10 10 10 10-4.48 10-10S17.52 2 12 2z"/>
  </symbol>

  <symbol id="icon-contribute" viewBox="0 0 24 24">
    <path d="M12 2l3 7h7l-5.6 4.2L19 22l-7-4-7 4 1.6-8.8L2 9h7z"/>
  </symbol>
</svg>
